<svg width="24" height="24" viewBox="0 0 24 24" fill="none" xmlns="http://www.w3.org/2000/svg">
    <path fill-rule="evenodd" clip-rule="evenodd"
        d="M6.3413 2.57362C8.24834 1.95968 10.316 2.23032 11.9964 3.29151C13.677 2.2318 15.7443 1.96145 17.6511 2.57368C21.6719 3.86925 23.0065 8.20505 21.8421 11.8251L21.8368 11.8411C21.2017 13.6727 20.1601 15.3337 18.7911 16.6967L18.7847 16.703C17.2879 18.1578 15.6701 19.452 13.9625 20.6192C12.7841 21.4246 11.2307 21.4425 10.0406 20.6367C8.31924 19.4712 6.70391 18.1487 5.21656 16.703L5.21013 16.6967C3.84117 15.3337 2.79957 13.6727 2.16449 11.8411L2.15913 11.8251C0.995346 8.20691 2.31894 3.8697 6.3413 2.57362ZM15.9675 6.33859C15.573 6.21255 15.1509 6.43024 15.0249 6.82481C14.8989 7.21938 15.1165 7.64142 15.5111 7.76746C16.2838 8.0143 16.8393 8.71084 16.9088 9.53784C16.9435 9.9506 17.3062 10.2571 17.719 10.2224C18.1317 10.1877 18.4382 9.82494 18.4035 9.41219C18.2838 7.98862 17.3254 6.77235 15.9675 6.33859Z"
        fill="none" />
</svg>